<?xml version="1.0" encoding="UTF-8"?><svg id="Layer_2" xmlns="http://www.w3.org/2000/svg" viewBox="0 0 459.69 67.88"><defs><style>.cls-1{fill:#231f20;}</style></defs><g id="Layer_1-2"><path class="cls-1" d="M297.67,50.91v-1.43h3.39v-9.15h-3.39v-1.43h8.45v1.43h-3.37v9.15h3.37v1.43h-8.45Z"/><path class="cls-1" d="M321.82,48.21v-9.3h1.54v12.01h-1.47l-5.95-9.91v9.91h-1.54v-12.01h1.94l5.47,9.3Z"/><path class="cls-1" d="M338.8,48.21v-9.3h1.54v12.01h-1.47l-5.95-9.91v9.91h-1.54v-12.01h1.94l5.47,9.3Z"/><path class="cls-1" d="M352.85,51.14c-2.9,0-5-2.54-5-6.23s2.1-6.23,5-6.23,5,2.54,5,6.23-2.1,6.23-5,6.23ZM352.85,40.12c-1.98,0-3.28,1.85-3.28,4.79s1.3,4.79,3.28,4.79,3.28-1.85,3.28-4.79-1.3-4.79-3.28-4.79Z"/><path class="cls-1" d="M368.84,50.91l-4.02-12.01h1.79l3.24,10.05h.08l3.2-10.05h1.72l-4.02,12.01h-1.98Z"/><path class="cls-1" d="M388.95,47.4h-4.38l-1.13,3.51h-1.64l4-12.01h2.02l4,12.01h-1.73l-1.14-3.51ZM385,46.07h3.53l-1.74-5.34h-.08l-1.72,5.34Z"/><path class="cls-1" d="M402.94,50.91v-10.56h-4.25v-1.45h10.22v1.45h-4.31v10.56h-1.66Z"/><path class="cls-1" d="M416.55,50.91v-1.43h3.39v-9.15h-3.39v-1.43h8.45v1.43h-3.37v9.15h3.37v1.43h-8.45Z"/><path class="cls-1" d="M437.76,51.14c-2.9,0-5-2.54-5-6.23s2.1-6.23,5-6.23,5,2.54,5,6.23-2.1,6.23-5,6.23ZM437.76,40.12c-1.98,0-3.28,1.85-3.28,4.79s1.3,4.79,3.28,4.79,3.28-1.85,3.28-4.79-1.3-4.79-3.28-4.79Z"/><path class="cls-1" d="M457.68,48.21v-9.3h1.54v12.01h-1.47l-5.95-9.91v9.91h-1.54v-12.01h1.94l5.47,9.3Z"/><path class="cls-1" d="M301.37,17.03v11.76h7.59v3.67h-11.76v-15.43h4.16Z"/><path class="cls-1" d="M321.39,32.76c-3.97,0-6.93-3.26-6.93-8.01s2.96-8.01,6.93-8.01,6.93,3.26,6.93,8.01-2.96,8.01-6.93,8.01ZM321.39,20.41c-1.67,0-2.72,1.71-2.72,4.34s1.05,4.34,2.72,4.34,2.72-1.71,2.72-4.34-1.05-4.34-2.72-4.34Z"/><path class="cls-1" d="M333.66,26.24v-9.21h4.14v8.52c0,2.35.39,3.7,2.28,3.7s2.28-1.35,2.28-3.7v-8.52h4.16v9.21c0,4.51-2.72,6.52-6.44,6.52s-6.42-2.01-6.42-6.52Z"/><path class="cls-1" d="M352.9,32.46v-3.6h3.85v-8.23h-3.85v-3.6h11.86v3.6h-3.85v8.23h3.85v3.6h-11.86Z"/><path class="cls-1" d="M372.99,27.12c1.13,1.52,2.79,2.28,4.58,2.28,1.49,0,2.38-.47,2.38-1.32s-.73-1-1.4-1.15l-3.16-.71c-2.3-.51-4.04-1.76-4.04-4.46,0-3.01,2.33-5.02,5.9-5.02,2.74,0,4.78,1.13,6.25,2.84l-2.5,2.6c-.81-1.18-1.84-2.08-3.75-2.08-1.15,0-2.01.51-2.01,1.3,0,.71.56.93,1.18,1.08l3.06.71c3.06.71,4.41,2.13,4.41,4.65,0,3.21-2.84,4.92-6.32,4.92-3.06,0-5.24-.98-6.91-2.69l2.33-2.94Z"/><path class="cls-1" d="M390.33,32.46v-3.6h3.85v-8.23h-3.85v-3.6h11.86v3.6h-3.85v8.23h3.85v3.6h-11.86Z"/><path class="cls-1" d="M417.16,29.47h-4.58l-.83,2.99h-4.04l4.73-15.43h5.1l4.73,15.43h-4.26l-.83-2.99ZM413.46,26.36h2.84l-1.37-4.9h-.1l-1.37,4.9Z"/><path class="cls-1" d="M436.34,26.05v-9.01h3.77v15.43h-3.9l-5.17-10.56v10.56h-3.77v-15.43h4.95l4.11,9.01Z"/><path class="cls-1" d="M454.6,29.47h-4.58l-.83,2.99h-4.04l4.73-15.43h5.1l4.73,15.43h-4.26l-.83-2.99ZM450.9,26.36h2.84l-1.37-4.9h-.1l-1.37,4.9Z"/><path class="cls-1" d="M66.14,19.91v22.03h14.23v6.89h-22.03v-28.92h7.8Z"/><path class="cls-1" d="M107.72,43.23h-8.58l-1.56,5.6h-7.57l8.86-28.92h9.55l8.86,28.92h-7.99l-1.56-5.6ZM100.79,37.4h5.32l-2.57-9.18h-.18l-2.57,9.18Z"/><path class="cls-1" d="M134.3,40.02h8.81v8.81h-8.81v-8.81Z"/><path class="cls-1" d="M162.67,48.83v-6.75h7.21v-15.42h-7.21v-6.75h22.22v6.75h-7.21v15.42h7.21v6.75h-22.22Z"/><path class="cls-1" d="M208.85,49.38c-7.44,0-12.99-6.11-12.99-15.01s5.55-15.01,12.99-15.01,12.99,6.1,12.99,15.01-5.55,15.01-12.99,15.01ZM208.85,26.25c-3.12,0-5.1,3.21-5.1,8.12s1.97,8.12,5.1,8.12,5.09-3.21,5.09-8.12-1.97-8.12-5.09-8.12Z"/><polygon class="cls-1" points="14.73 33.94 41.3 60.51 33.94 67.88 0 33.94 33.94 0 41.3 7.36 14.73 33.94"/><polygon class="cls-1" points="265.45 33.94 238.87 7.36 246.24 0 280.17 33.94 246.24 67.88 238.87 60.51 265.45 33.94"/></g></svg>