<?xml version="1.0" encoding="UTF-8"?><svg id="Layer_2" xmlns="http://www.w3.org/2000/svg" viewBox="0 0 227.44 48.46"><defs><style>.cls-1{fill:#231f20;}</style></defs><g id="Layer_1-2"><path class="cls-1" d="M.88,48.46v-2s4.74-.02,4.74-.02l-.06-12.8-4.75.02v-2s11.81-.06,11.81-.06v2s-4.71.02-4.71.02l.06,12.8,4.72-.02v2s-11.81.06-11.81.06Z"/><path class="cls-1" d="M34.65,44.51l-.06-13.02h2.16s.08,16.79.08,16.79h-2.05s-8.39-13.82-8.39-13.82l.07,13.87h-2.16s-.08-16.79-.08-16.79h2.72s7.72,12.97,7.72,12.97Z"/><path class="cls-1" d="M58.41,44.39l-.06-13.02h2.16s.08,16.79.08,16.79h-2.05s-8.39-13.82-8.39-13.82l.07,13.87h-2.16s-.08-16.79-.08-16.79h2.72s7.72,12.97,7.72,12.97Z"/><path class="cls-1" d="M78.08,48.41c-4.05.02-7.01-3.51-7.03-8.69-.02-5.17,2.89-8.74,6.95-8.76,4.05-.02,7.01,3.51,7.03,8.69.02,5.17-2.89,8.74-6.95,8.76ZM78.01,32.99c-2.77.01-4.58,2.61-4.56,6.72.02,4.11,1.85,6.69,4.62,6.67,2.77-.01,4.58-2.61,4.56-6.72-.02-4.11-1.85-6.69-4.62-6.67Z"/><path class="cls-1" d="M100.45,47.98l-5.71-16.78h2.51s4.6,14.02,4.6,14.02h.11s4.41-14.08,4.41-14.08h2.4s-5.55,16.82-5.55,16.82h-2.77Z"/><path class="cls-1" d="M128.57,42.94l-6.13.03-1.55,4.92h-2.29s5.52-16.82,5.52-16.82h2.83s5.68,16.76,5.68,16.76h-2.43s-1.63-4.89-1.63-4.89ZM123.03,41.1l4.93-.02-2.46-7.46h-.11s-2.37,7.48-2.37,7.48Z"/><path class="cls-1" d="M148.16,47.75l-.07-14.78-5.95.03v-2.03s14.29-.07,14.29-.07v2.03s-6.02.03-6.02.03l.07,14.78h-2.32Z"/><path class="cls-1" d="M167.2,47.66v-2s4.74-.02,4.74-.02l-.06-12.8-4.75.02v-2s11.81-.06,11.81-.06v2s-4.71.02-4.71.02l.06,12.8,4.72-.02v2s-11.81.06-11.81.06Z"/><path class="cls-1" d="M196.88,47.84c-4.05.02-7.01-3.51-7.03-8.69-.02-5.17,2.89-8.74,6.95-8.76,4.05-.02,7.01,3.51,7.03,8.69.02,5.17-2.89,8.74-6.95,8.76ZM196.81,32.42c-2.77.01-4.58,2.61-4.56,6.72.02,4.11,1.85,6.69,4.62,6.67s4.58-2.61,4.56-6.72c-.02-4.11-1.85-6.69-4.62-6.67Z"/><path class="cls-1" d="M224.73,43.6l-.06-13.02h2.16s.08,16.79.08,16.79h-2.05s-8.39-13.82-8.39-13.82l.07,13.87h-2.16s-.08-16.79-.08-16.79h2.72s7.72,12.97,7.72,12.97Z"/><path class="cls-1" d="M5.83,1.03l.08,16.45,10.62-.05.02,5.14-16.45.08L0,1.05l5.83-.03Z"/><path class="cls-1" d="M33.94,22.9c-5.55.03-9.72-4.51-9.75-11.16-.03-6.65,4.09-11.23,9.65-11.25s9.72,4.51,9.75,11.16-4.09,11.23-9.65,11.25ZM33.86,5.62c-2.33.01-3.79,2.42-3.78,6.08s1.5,6.06,3.83,6.05,3.79-2.42,3.78-6.08c-.02-3.67-1.5-6.06-3.83-6.05Z"/><path class="cls-1" d="M51.07,13.7l-.06-12.89,5.79-.03.06,11.93c.02,3.29.57,5.17,3.21,5.16s3.18-1.9,3.16-5.19l-.06-11.93,5.83-.03.06,12.89c.03,6.31-3.76,9.13-8.97,9.16-5.21.02-8.99-2.77-9.02-9.07Z"/><path class="cls-1" d="M78.02,22.27l-.02-5.04,5.38-.03-.06-11.52-5.38.03-.02-5.04,16.59-.08.02,5.04-5.38.03.06,11.52,5.38-.03.02,5.04-16.59.08Z"/><path class="cls-1" d="M106.09,14.67c1.59,2.12,3.92,3.17,6.42,3.16,2.09,0,3.32-.67,3.31-1.87s-1.03-1.4-1.96-1.6l-4.43-.97c-3.22-.7-5.67-2.44-5.68-6.21-.02-4.22,3.22-7.04,8.23-7.07,3.84-.02,6.69,1.54,8.76,3.93l-3.48,3.65c-1.14-1.64-2.58-2.9-5.26-2.89-1.61,0-2.81.73-2.8,1.83,0,.99.8,1.3,1.65,1.5l4.29.97c4.29.97,6.18,2.95,6.2,6.48.02,4.49-3.94,6.91-8.81,6.93-4.28.02-7.34-1.34-9.68-3.72l3.24-4.13Z"/><path class="cls-1" d="M130.4,22.02l-.02-5.04,5.38-.03-.06-11.52-5.38.03-.02-5.04,16.59-.08.02,5.04-5.38.03.06,11.52,5.38-.03.02,5.04-16.59.08Z"/><path class="cls-1" d="M167.91,17.66l-6.41.03-1.14,4.19-5.66.03L161.21.28l7.13-.03,6.72,21.56-5.96.03-1.19-4.18ZM162.72,13.34l3.98-.02-1.95-6.85h-.14s-1.89,6.86-1.89,6.86Z"/><path class="cls-1" d="M194.73,12.74l-.06-12.61,5.28-.03.1,21.59-5.45.03-7.3-14.74.07,14.77-5.28.03-.1-21.59,6.92-.03,5.82,12.59Z"/><path class="cls-1" d="M220.29,17.41l-6.41.03-1.14,4.19-5.66.03L213.59.03l7.13-.03,6.72,21.56-5.96.03-1.19-4.18ZM215.1,13.09l3.98-.02-1.95-6.85h-.14s-1.89,6.86-1.89,6.86Z"/></g></svg>