<?xml version="1.0" encoding="UTF-8"?><svg id="Layer_2" xmlns="http://www.w3.org/2000/svg" viewBox="0 0 274.65 67.88"><defs><style>.cls-1{fill:#231f20;}</style></defs><g id="Layer_1-2"><path class="cls-1" d="M60.22,49.17v5.16h3.33v1.61h-5.16v-6.77h1.83Z"/><path class="cls-1" d="M69,56.07c-1.74,0-3.04-1.43-3.04-3.51s1.3-3.51,3.04-3.51,3.04,1.43,3.04,3.51-1.3,3.51-3.04,3.51ZM69,50.65c-.73,0-1.19.75-1.19,1.9s.46,1.9,1.19,1.9,1.19-.75,1.19-1.9-.46-1.9-1.19-1.9Z"/><path class="cls-1" d="M74.39,53.21v-4.04h1.82v3.74c0,1.03.17,1.62,1,1.62s1-.59,1-1.62v-3.74h1.83v4.04c0,1.98-1.19,2.86-2.83,2.86s-2.82-.88-2.82-2.86Z"/><path class="cls-1" d="M82.83,55.94v-1.58h1.69v-3.61h-1.69v-1.58h5.2v1.58h-1.69v3.61h1.69v1.58h-5.2Z"/><path class="cls-1" d="M91.65,53.6c.49.67,1.23,1,2.01,1,.66,0,1.04-.2,1.04-.58s-.32-.44-.61-.5l-1.39-.31c-1.01-.23-1.77-.77-1.77-1.96,0-1.32,1.02-2.2,2.59-2.2,1.2,0,2.1.49,2.74,1.25l-1.1,1.14c-.35-.52-.81-.91-1.64-.91-.51,0-.88.23-.88.57,0,.31.25.41.52.47l1.34.31c1.34.31,1.93.93,1.93,2.04,0,1.41-1.25,2.16-2.77,2.16-1.34,0-2.3-.43-3.03-1.18l1.02-1.29Z"/><path class="cls-1" d="M99.26,55.94v-1.58h1.69v-3.61h-1.69v-1.58h5.2v1.58h-1.69v3.61h1.69v1.58h-5.2Z"/><path class="cls-1" d="M111.03,54.63h-2.01l-.37,1.31h-1.77l2.07-6.77h2.24l2.07,6.77h-1.87l-.37-1.31ZM109.41,53.26h1.25l-.6-2.15h-.04l-.6,2.15Z"/><path class="cls-1" d="M119.44,53.12v-3.96h1.65v6.77h-1.71l-2.27-4.63v4.63h-1.66v-6.77h2.17l1.81,3.96Z"/><path class="cls-1" d="M127.45,54.63h-2.01l-.37,1.31h-1.77l2.07-6.77h2.24l2.07,6.77h-1.87l-.37-1.31ZM125.83,53.26h1.25l-.6-2.15h-.04l-.6,2.15Z"/><path class="cls-1" d="M137.49,55.94v-.81h1.91v-5.16h-1.91v-.81h4.76v.81h-1.9v5.16h1.9v.81h-4.76Z"/><path class="cls-1" d="M149.74,54.41v-5.24h.87v6.77h-.83l-3.35-5.59v5.59h-.87v-6.77h1.1l3.08,5.24Z"/><path class="cls-1" d="M157.96,54.41v-5.24h.87v6.77h-.83l-3.35-5.59v5.59h-.87v-6.77h1.1l3.08,5.24Z"/><path class="cls-1" d="M164.51,56.07c-1.63,0-2.82-1.43-2.82-3.51s1.18-3.51,2.82-3.51,2.82,1.43,2.82,3.51-1.18,3.51-2.82,3.51ZM164.51,49.86c-1.12,0-1.85,1.04-1.85,2.7s.73,2.7,1.85,2.7,1.85-1.04,1.85-2.7-.73-2.7-1.85-2.7Z"/><path class="cls-1" d="M172.17,55.94l-2.27-6.77h1.01l1.83,5.66h.04l1.81-5.66h.97l-2.27,6.77h-1.12Z"/><path class="cls-1" d="M182.14,53.96h-2.47l-.63,1.98h-.92l2.26-6.77h1.14l2.26,6.77h-.98l-.64-1.98ZM179.92,53.21h1.99l-.98-3.01h-.04l-.97,3.01Z"/><path class="cls-1" d="M188.67,55.94v-5.95h-2.4v-.82h5.76v.82h-2.43v5.95h-.93Z"/><path class="cls-1" d="M194.98,55.94v-.81h1.91v-5.16h-1.91v-.81h4.76v.81h-1.9v5.16h1.9v.81h-4.76Z"/><path class="cls-1" d="M205.58,56.07c-1.63,0-2.82-1.43-2.82-3.51s1.18-3.51,2.82-3.51,2.82,1.43,2.82,3.51-1.18,3.51-2.82,3.51ZM205.58,49.86c-1.12,0-1.85,1.04-1.85,2.7s.73,2.7,1.85,2.7,1.85-1.04,1.85-2.7-.73-2.7-1.85-2.7Z"/><path class="cls-1" d="M215.45,54.41v-5.24h.87v6.77h-.83l-3.35-5.59v5.59h-.87v-6.77h1.1l3.08,5.24Z"/><path class="cls-1" d="M131.74,32.01h8.52v8.52h-8.52v-8.52Z"/><path class="cls-1" d="M65.87,12.58v21.29h13.75v6.65h-21.29V12.58h7.54Z"/><path class="cls-1" d="M106.06,35.11h-8.29l-1.51,5.41h-7.32l8.56-27.94h9.22l8.56,27.94h-7.72l-1.51-5.41ZM99.36,29.48h5.14l-2.48-8.87h-.18l-2.48,8.87Z"/><path class="cls-1" d="M159.15,40.53v-6.52h6.96v-14.9h-6.96v-6.52h21.47v6.52h-6.96v14.9h6.96v6.52h-21.47Z"/><path class="cls-1" d="M203.77,41.06c-7.19,0-12.55-5.9-12.55-14.5s5.37-14.5,12.55-14.5,12.55,5.9,12.55,14.5-5.37,14.5-12.55,14.5ZM203.77,18.7c-3.02,0-4.92,3.11-4.92,7.85s1.91,7.85,4.92,7.85,4.92-3.11,4.92-7.85-1.91-7.85-4.92-7.85Z"/><polygon class="cls-1" points="14.73 33.94 41.3 60.51 33.94 67.88 0 33.94 33.94 0 41.3 7.36 14.73 33.94"/><polygon class="cls-1" points="259.93 33.94 233.35 7.36 240.72 0 274.65 33.94 240.72 67.88 233.35 60.51 259.93 33.94"/></g></svg>