<?xml version="1.0" encoding="UTF-8"?><svg id="Layer_2" xmlns="http://www.w3.org/2000/svg" viewBox="0 0 280.17 67.88"><defs><style>.cls-1{fill:#67DDDF;}</style></defs><g id="Layer_1-2"><path class="cls-1" d="M66.14,19.91v22.03h14.23v6.89h-22.03v-28.92h7.8Z"/><path class="cls-1" d="M107.72,43.23h-8.58l-1.56,5.6h-7.57l8.86-28.92h9.55l8.86,28.92h-7.99l-1.56-5.6ZM100.79,37.4h5.32l-2.57-9.18h-.18l-2.57,9.18Z"/><path class="cls-1" d="M134.3,40.02h8.81v8.81h-8.81v-8.81Z"/><path class="cls-1" d="M162.67,48.83v-6.75h7.21v-15.42h-7.21v-6.75h22.22v6.75h-7.21v15.42h7.21v6.75h-22.22Z"/><path class="cls-1" d="M208.85,49.38c-7.44,0-12.99-6.11-12.99-15.01s5.55-15.01,12.99-15.01,12.99,6.1,12.99,15.01-5.55,15.01-12.99,15.01ZM208.85,26.25c-3.12,0-5.1,3.21-5.1,8.12s1.97,8.12,5.1,8.12,5.09-3.21,5.09-8.12-1.97-8.12-5.09-8.12Z"/><polygon class="cls-1" points="14.73 33.94 41.3 60.51 33.94 67.88 0 33.94 33.94 0 41.3 7.36 14.73 33.94"/><polygon class="cls-1" points="265.45 33.94 238.87 7.36 246.24 0 280.17 33.94 246.24 67.88 238.87 60.51 265.45 33.94"/></g></svg>